<svg width="23" height="12" viewBox="0 0 23 12" fill="none" xmlns="http://www.w3.org/2000/svg">
<path d="M1.725 11.9998C1.265 11.9998 0.8625 11.8873 0.5175 11.6623C0.1725 11.4373 0 11.1748 0 10.8748V1.12476C0 0.824756 0.1725 0.562256 0.5175 0.337256C0.8625 0.112256 1.265 -0.000244141 1.725 -0.000244141H21.275C21.735 -0.000244141 22.1375 0.112256 22.4825 0.337256C22.8275 0.562256 23 0.824756 23 1.12476V10.8748C23 11.1748 22.8275 11.4373 22.4825 11.6623C22.1375 11.8873 21.735 11.9998 21.275 11.9998H1.725ZM11.5 6.33726L1.725 2.15601V10.8748H21.275V2.15601L11.5 6.33726ZM11.5 5.21226L21.16 1.12476H1.86875L11.5 5.21226ZM1.725 2.15601V1.12476V10.8748V2.15601Z" fill="#F5F5F5"/>
</svg>
