<svg width="56" height="55" viewBox="0 0 56 55" fill="none" xmlns="http://www.w3.org/2000/svg">
<g clip-path="url(#clip0_8_306)">
<path d="M27.8873 -0.000244141C12.5602 -0.000244141 0 12.493 0 27.6072C0 42.6337 12.4458 54.9998 27.8873 54.9998C43.3097 54.9998 55.7746 42.6521 55.7746 27.6072C55.7746 12.493 43.2144 -0.000244141 27.8873 -0.000244141ZM32.7894 51.2937C31.2209 51.6159 29.5541 51.7771 27.8873 51.7771C26.2206 51.7771 24.5538 51.6159 22.9853 51.2937V43.7528C22.9853 41.948 23.4754 41.3034 24.1291 40.4332C24.4619 40.058 24.6627 39.7215 26.155 37.5008L23.6389 37.114C17.1679 36.1795 14.619 32.8599 13.6058 30.2818C12.2985 26.8338 12.9849 22.5151 15.3381 19.7763C15.6977 19.3571 15.9917 18.6479 15.7305 17.9069C15.2399 16.4244 15.3053 14.0721 15.6322 13.1694C17.3649 13.4136 19.1465 14.6377 20.6325 15.5222C21.3172 15.9162 21.6764 15.8121 22.0049 15.8445C23.1989 15.5994 25.0614 15.0065 27.9201 15.0065C29.6847 15.0065 31.5477 15.2641 33.3779 15.7799C33.7052 15.7723 34.2311 16.0468 35.1426 15.5222C36.6957 14.5889 38.417 13.4069 40.1425 13.1694C40.4693 14.0721 40.5348 16.4244 40.0446 17.9069C39.7829 18.6479 40.077 19.3571 40.437 19.7763C42.7898 22.5155 43.4761 26.8338 42.1689 30.2818C41.1557 32.8599 38.6068 36.1795 32.1358 37.114L29.6197 37.5008C31.1622 39.7962 31.3247 40.0714 31.646 40.4332C32.2992 41.3034 32.7894 41.948 32.7894 43.7528V51.2937ZM36.0574 50.3592V43.7528C36.0574 41.9157 35.6651 40.6913 35.1422 39.7886C40.1098 38.4677 43.6394 35.5669 45.2079 31.4097C46.8748 27.0273 46.1233 21.8064 43.345 18.1968C43.8356 16.038 43.8356 12.5895 42.659 10.9782C42.1361 10.2695 41.4169 9.88257 40.5021 9.88257C40.4693 9.88257 40.4693 9.88257 40.4693 9.88257C37.9352 10.0177 35.9408 11.2761 33.8026 12.5572C31.8417 12.0415 29.8481 11.7838 27.8545 11.7838C25.8286 11.7838 23.8023 12.0738 22.0052 12.5572C19.7543 11.2187 17.7789 10.0143 15.1747 9.88257C14.3577 9.88257 13.6386 10.2695 13.1156 10.9782C11.9395 12.5895 11.9395 16.038 12.4296 18.1968C9.65137 21.8064 8.89989 27.0592 10.5667 31.4097C12.1352 35.5669 15.6649 38.4677 20.6325 39.7886C20.227 40.4881 19.9062 41.3908 19.7798 42.6122C18.7764 42.9534 17.9061 43.0646 17.0968 42.83C16.2432 42.5812 15.5781 42.0193 15.0003 41.0609C13.7024 38.9108 11.4918 37.1556 8.97479 37.3838L9.26202 40.5939C10.4275 40.4886 11.5875 41.7046 12.1901 42.707C13.1841 44.3578 14.5233 45.4404 16.1713 45.9205C17.3947 46.2759 18.5129 46.2675 19.7172 46.0141V50.3592C10.2071 47.0719 3.26805 38.1131 3.26805 27.6072C3.26805 14.2654 14.3577 3.22241 27.8873 3.22241C41.4169 3.22241 52.5066 14.2654 52.5066 27.6072C52.5066 38.1131 45.5676 47.0719 36.0574 50.3592Z" fill="#F5F5F5"/>
</g>
<defs>
<clipPath id="clip0_8_306">
<rect width="55.7746" height="55" fill="white" transform="translate(0 -0.000244141)"/>
</clipPath>
</defs>
</svg>
