<svg width="57" height="55" viewBox="0 0 57 55" fill="none" xmlns="http://www.w3.org/2000/svg">
<g clip-path="url(#clip0_8_301)">
<path d="M47.8721 -0.000244141H8.43769C3.93264 -0.000244141 0.267578 3.61392 0.267578 8.0564V46.9431C0.267578 51.3856 3.93264 54.9998 8.43769 54.9998H47.8721C52.3772 54.9998 56.0422 51.3856 56.0422 46.9431V8.0564C56.0422 3.61392 52.3772 -0.000244141 47.8721 -0.000244141ZM52.7742 46.9431C52.7742 49.6085 50.5751 51.7771 47.8721 51.7771H8.43769C5.73474 51.7771 3.53563 49.6085 3.53563 46.9431V8.0564C3.53563 5.39099 5.73474 3.22241 8.43769 3.22241H47.8721C50.5751 3.22241 52.7742 5.39099 52.7742 8.0564V46.9431Z" fill="#F5F5F5"/>
<path d="M10.1807 45.3317H19.9848V22.5583H10.1807V45.3317ZM13.4487 25.781H16.7168V42.1091H13.4487V25.781Z" fill="#F5F5F5"/>
<path d="M36.3344 22.5583C36.3314 22.5583 36.328 22.5583 36.325 22.5583C35.1953 22.5583 34.0948 22.7447 33.057 23.1064V22.5583H23.2529V45.3317H33.057V33.8376C33.057 32.9493 33.7902 32.2264 34.691 32.2264C35.5918 32.2264 36.325 32.9493 36.325 33.8376V45.3317H46.1292V32.7298C46.1292 27.5148 41.839 22.5634 36.3344 22.5583ZM42.8611 42.1091H39.5931V33.8376C39.5931 31.1722 37.394 29.0037 34.691 29.0037C31.9881 29.0037 29.7894 31.1722 29.7889 33.8372V42.1091H26.521V25.781H29.7889V29.0058L32.4043 27.0688C33.5416 26.2262 34.8974 25.781 36.325 25.781H36.3314C39.8097 25.7844 42.8611 29.0314 42.8611 32.7298V42.1091Z" fill="#F5F5F5"/>
<path d="M10.1807 19.3357H19.9848V9.66772H10.1807V19.3357ZM13.4487 12.8904H16.7168V16.113H13.4487V12.8904Z" fill="#F5F5F5"/>
</g>
<defs>
<clipPath id="clip0_8_301">
<rect width="55.7746" height="55" fill="white" transform="translate(0.267578 -0.000244141)"/>
</clipPath>
</defs>
</svg>
