<svg width="282" height="30" viewBox="0 0 282 30" fill="none" xmlns="http://www.w3.org/2000/svg">
<path d="M0.2 13.95C0.68 13.95 1.09 13.87 1.43 13.71C1.77 13.53 2.05 13.31 2.27 13.05C2.51 12.77 2.68 12.46 2.78 12.12C2.9 11.76 2.96 11.4 2.96 11.04V5.64C2.96 4.82 3.05 4.09 3.23 3.45C3.41 2.81 3.72 2.28 4.16 1.86C4.6 1.42 5.18 1.09 5.9 0.869999C6.64 0.629999 7.55 0.509998 8.63 0.509998H8.75V2.7C7.61 2.7 6.79 2.91 6.29 3.33C5.81 3.73 5.57 4.51 5.57 5.67V10.29C5.57 11.61 5.39 12.63 5.03 13.35C4.69 14.07 4.2 14.63 3.56 15.03C4.2 15.43 4.69 15.99 5.03 16.71C5.39 17.43 5.57 18.45 5.57 19.77V24.39C5.57 25.55 5.81 26.33 6.29 26.73C6.79 27.15 7.61 27.36 8.75 27.36V29.55H8.63C7.55 29.55 6.64 29.44 5.9 29.22C5.18 29 4.6 28.67 4.16 28.23C3.72 27.79 3.41 27.25 3.23 26.61C3.05 25.97 2.96 25.24 2.96 24.42V19.02C2.96 18.66 2.9 18.31 2.78 17.97C2.68 17.61 2.51 17.3 2.27 17.04C2.05 16.76 1.77 16.54 1.43 16.38C1.09 16.2 0.68 16.11 0.2 16.11V13.95ZM118.968 27.18H133.968V29.55H118.968V27.18ZM281.54 16.11C281.06 16.11 280.65 16.2 280.31 16.38C279.97 16.54 279.68 16.76 279.44 17.04C279.22 17.3 279.05 17.61 278.93 17.97C278.83 18.31 278.78 18.66 278.78 19.02V24.42C278.78 25.24 278.69 25.97 278.51 26.61C278.33 27.25 278.02 27.79 277.58 28.23C277.14 28.67 276.55 29 275.81 29.22C275.09 29.44 274.19 29.55 273.11 29.55H272.99V27.36C274.13 27.36 274.94 27.15 275.42 26.73C275.92 26.33 276.17 25.55 276.17 24.39V19.77C276.17 18.45 276.34 17.43 276.68 16.71C277.04 15.99 277.54 15.43 278.18 15.03C277.54 14.63 277.04 14.07 276.68 13.35C276.34 12.63 276.17 11.61 276.17 10.29V5.67C276.17 4.51 275.92 3.73 275.42 3.33C274.94 2.91 274.13 2.7 272.99 2.7V0.509998H273.11C274.19 0.509998 275.09 0.629999 275.81 0.869999C276.55 1.09 277.14 1.42 277.58 1.86C278.02 2.28 278.33 2.81 278.51 3.45C278.69 4.09 278.78 4.82 278.78 5.64V11.04C278.78 11.4 278.83 11.76 278.93 12.12C279.05 12.46 279.22 12.77 279.44 13.05C279.68 13.31 279.97 13.53 280.31 13.71C280.65 13.87 281.06 13.95 281.54 13.95V16.11Z" fill="#5522FF"/>
<path d="M16.4002 21.93C19.4402 21.93 20.9602 20.89 20.9602 18.81C20.9602 18.17 20.8202 17.63 20.5402 17.19C20.2802 16.73 19.9202 16.34 19.4602 16.02C19.0002 15.68 18.4702 15.39 17.8702 15.15C17.2902 14.91 16.6702 14.67 16.0102 14.43C15.2502 14.17 14.5302 13.88 13.8502 13.56C13.1702 13.22 12.5802 12.83 12.0802 12.39C11.5802 11.93 11.1802 11.39 10.8802 10.77C10.6002 10.15 10.4602 9.4 10.4602 8.52C10.4602 6.7 11.0802 5.28 12.3202 4.26C13.5602 3.24 15.2702 2.73 17.4502 2.73C18.7102 2.73 19.8502 2.87 20.8702 3.15C21.9102 3.41 22.6702 3.7 23.1502 4.02L22.2202 6.39C21.8002 6.13 21.1702 5.88 20.3302 5.64C19.5102 5.38 18.5502 5.25 17.4502 5.25C16.8902 5.25 16.3702 5.31 15.8902 5.43C15.4102 5.55 14.9902 5.73 14.6302 5.97C14.2702 6.21 13.9802 6.52 13.7602 6.9C13.5602 7.26 13.4602 7.69 13.4602 8.19C13.4602 8.75 13.5702 9.22 13.7902 9.6C14.0102 9.98 14.3202 10.32 14.7202 10.62C15.1202 10.9 15.5802 11.16 16.1002 11.4C16.6402 11.64 17.2302 11.88 17.8702 12.12C18.7702 12.48 19.5902 12.84 20.3302 13.2C21.0902 13.56 21.7402 13.99 22.2802 14.49C22.8402 14.99 23.2702 15.59 23.5702 16.29C23.8702 16.97 24.0202 17.8 24.0202 18.78C24.0202 20.6 23.3502 22 22.0102 22.98C20.6902 23.96 18.8202 24.45 16.4002 24.45C15.5802 24.45 14.8202 24.39 14.1202 24.27C13.4402 24.17 12.8302 24.05 12.2902 23.91C11.7502 23.75 11.2802 23.59 10.8802 23.43C10.5002 23.25 10.2002 23.1 9.98023 22.98L10.8502 20.58C11.3102 20.84 12.0102 21.13 12.9502 21.45C13.8902 21.77 15.0402 21.93 16.4002 21.93ZM32.637 21.99C33.297 21.99 33.877 21.98 34.377 21.96C34.897 21.92 35.327 21.86 35.667 21.78V17.13C35.467 17.03 35.137 16.95 34.677 16.89C34.237 16.81 33.697 16.77 33.057 16.77C32.637 16.77 32.187 16.8 31.707 16.86C31.247 16.92 30.817 17.05 30.417 17.25C30.037 17.43 29.717 17.69 29.457 18.03C29.197 18.35 29.067 18.78 29.067 19.32C29.067 20.32 29.387 21.02 30.027 21.42C30.667 21.8 31.537 21.99 32.637 21.99ZM32.397 8.01C33.517 8.01 34.457 8.16 35.217 8.46C35.997 8.74 36.617 9.15 37.077 9.69C37.557 10.21 37.897 10.84 38.097 11.58C38.297 12.3 38.397 13.1 38.397 13.98V23.73C38.157 23.77 37.817 23.83 37.377 23.91C36.957 23.97 36.477 24.03 35.937 24.09C35.397 24.15 34.807 24.2 34.167 24.24C33.547 24.3 32.927 24.33 32.307 24.33C31.427 24.33 30.617 24.24 29.877 24.06C29.137 23.88 28.497 23.6 27.957 23.22C27.417 22.82 26.997 22.3 26.697 21.66C26.397 21.02 26.247 20.25 26.247 19.35C26.247 18.49 26.417 17.75 26.757 17.13C27.117 16.51 27.597 16.01 28.197 15.63C28.797 15.25 29.497 14.97 30.297 14.79C31.097 14.61 31.937 14.52 32.817 14.52C33.097 14.52 33.387 14.54 33.687 14.58C33.987 14.6 34.267 14.64 34.527 14.7C34.807 14.74 35.047 14.78 35.247 14.82C35.447 14.86 35.587 14.89 35.667 14.91V14.13C35.667 13.67 35.617 13.22 35.517 12.78C35.417 12.32 35.237 11.92 34.977 11.58C34.717 11.22 34.357 10.94 33.897 10.74C33.457 10.52 32.877 10.41 32.157 10.41C31.237 10.41 30.427 10.48 29.727 10.62C29.047 10.74 28.537 10.87 28.197 11.01L27.867 8.7C28.227 8.54 28.827 8.39 29.667 8.25C30.507 8.09 31.417 8.01 32.397 8.01ZM43.0309 8.85C43.6709 8.69 44.5209 8.52 45.5809 8.34C46.6409 8.16 47.8609 8.07 49.2409 8.07C50.4809 8.07 51.5109 8.25 52.3309 8.61C53.1509 8.95 53.8009 9.44 54.2809 10.08C54.7809 10.7 55.1309 11.45 55.3309 12.33C55.5309 13.21 55.6309 14.18 55.6309 15.24V24H52.8409V15.84C52.8409 14.88 52.7709 14.06 52.6309 13.38C52.5109 12.7 52.3009 12.15 52.0009 11.73C51.7009 11.31 51.3009 11.01 50.8009 10.83C50.3009 10.63 49.6809 10.53 48.9409 10.53C48.6409 10.53 48.3309 10.54 48.0109 10.56C47.6909 10.58 47.3809 10.61 47.0809 10.65C46.8009 10.67 46.5409 10.7 46.3009 10.74C46.0809 10.78 45.9209 10.81 45.8209 10.83V24H43.0309V8.85ZM67.0374 24.36C65.7774 24.36 64.6674 24.16 63.7074 23.76C62.7674 23.36 61.9674 22.8 61.3074 22.08C60.6674 21.36 60.1874 20.51 59.8674 19.53C59.5474 18.53 59.3874 17.43 59.3874 16.23C59.3874 15.03 59.5574 13.93 59.8974 12.93C60.2574 11.93 60.7574 11.07 61.3974 10.35C62.0374 9.61 62.8174 9.04 63.7374 8.64C64.6774 8.22 65.7174 8.01 66.8574 8.01C67.5574 8.01 68.2574 8.07 68.9574 8.19C69.6574 8.31 70.3274 8.5 70.9674 8.76L70.3374 11.13C69.9174 10.93 69.4274 10.77 68.8674 10.65C68.3274 10.53 67.7474 10.47 67.1274 10.47C65.5674 10.47 64.3674 10.96 63.5274 11.94C62.7074 12.92 62.2974 14.35 62.2974 16.23C62.2974 17.07 62.3874 17.84 62.5674 18.54C62.7674 19.24 63.0674 19.84 63.4674 20.34C63.8874 20.84 64.4174 21.23 65.0574 21.51C65.6974 21.77 66.4774 21.9 67.3974 21.9C68.1374 21.9 68.8074 21.83 69.4074 21.69C70.0074 21.55 70.4774 21.4 70.8174 21.24L71.2074 23.58C71.0474 23.68 70.8174 23.78 70.5174 23.88C70.2174 23.96 69.8774 24.03 69.4974 24.09C69.1174 24.17 68.7074 24.23 68.2674 24.27C67.8474 24.33 67.4374 24.36 67.0374 24.36ZM74.2027 24V1.2L76.9927 0.719999V8.7C77.5127 8.5 78.0627 8.35 78.6427 8.25C79.2427 8.13 79.8327 8.07 80.4127 8.07C81.6527 8.07 82.6827 8.25 83.5027 8.61C84.3227 8.95 84.9727 9.44 85.4527 10.08C85.9527 10.7 86.3027 11.45 86.5027 12.33C86.7027 13.21 86.8027 14.18 86.8027 15.24V24H84.0127V15.84C84.0127 14.88 83.9427 14.06 83.8027 13.38C83.6827 12.7 83.4727 12.15 83.1727 11.73C82.8727 11.31 82.4727 11.01 81.9727 10.83C81.4727 10.63 80.8527 10.53 80.1127 10.53C79.8127 10.53 79.5027 10.55 79.1827 10.59C78.8627 10.63 78.5527 10.68 78.2527 10.74C77.9727 10.78 77.7127 10.83 77.4727 10.89C77.2527 10.95 77.0927 11 76.9927 11.04V24H74.2027ZM90.4714 16.23C90.4714 14.85 90.6714 13.65 91.0714 12.63C91.4714 11.59 92.0014 10.73 92.6614 10.05C93.3214 9.37 94.0814 8.86 94.9414 8.52C95.8014 8.18 96.6814 8.01 97.5814 8.01C99.6814 8.01 101.291 8.67 102.411 9.99C103.531 11.29 104.091 13.28 104.091 15.96C104.091 16.08 104.091 16.24 104.091 16.44C104.091 16.62 104.081 16.79 104.061 16.95H93.3814C93.5014 18.57 93.9714 19.8 94.7914 20.64C95.6114 21.48 96.8914 21.9 98.6314 21.9C99.6114 21.9 100.431 21.82 101.091 21.66C101.771 21.48 102.281 21.31 102.621 21.15L103.011 23.49C102.671 23.67 102.071 23.86 101.211 24.06C100.371 24.26 99.4114 24.36 98.3314 24.36C96.9714 24.36 95.7914 24.16 94.7914 23.76C93.8114 23.34 93.0014 22.77 92.3614 22.05C91.7214 21.33 91.2414 20.48 90.9214 19.5C90.6214 18.5 90.4714 17.41 90.4714 16.23ZM101.181 14.7C101.201 13.44 100.881 12.41 100.221 11.61C99.5814 10.79 98.6914 10.38 97.5514 10.38C96.9114 10.38 96.3414 10.51 95.8414 10.77C95.3614 11.01 94.9514 11.33 94.6114 11.73C94.2714 12.13 94.0014 12.59 93.8014 13.11C93.6214 13.63 93.5014 14.16 93.4414 14.7H101.181ZM111.729 21.99C112.869 21.99 113.709 21.84 114.249 21.54C114.809 21.24 115.089 20.76 115.089 20.1C115.089 19.42 114.819 18.88 114.279 18.48C113.739 18.08 112.849 17.63 111.609 17.13C111.009 16.89 110.429 16.65 109.869 16.41C109.329 16.15 108.859 15.85 108.459 15.51C108.059 15.17 107.739 14.76 107.499 14.28C107.259 13.8 107.139 13.21 107.139 12.51C107.139 11.13 107.649 10.04 108.669 9.24C109.689 8.42 111.079 8.01 112.839 8.01C113.279 8.01 113.719 8.04 114.159 8.1C114.599 8.14 115.009 8.2 115.389 8.28C115.769 8.34 116.099 8.41 116.379 8.49C116.679 8.57 116.909 8.64 117.069 8.7L116.559 11.1C116.259 10.94 115.789 10.78 115.149 10.62C114.509 10.44 113.739 10.35 112.839 10.35C112.059 10.35 111.379 10.51 110.799 10.83C110.219 11.13 109.929 11.61 109.929 12.27C109.929 12.61 109.989 12.91 110.109 13.17C110.249 13.43 110.449 13.67 110.709 13.89C110.989 14.09 111.329 14.28 111.729 14.46C112.129 14.64 112.609 14.83 113.169 15.03C113.909 15.31 114.569 15.59 115.149 15.87C115.729 16.13 116.219 16.44 116.619 16.8C117.039 17.16 117.359 17.6 117.579 18.12C117.799 18.62 117.909 19.24 117.909 19.98C117.909 21.42 117.369 22.51 116.289 23.25C115.229 23.99 113.709 24.36 111.729 24.36C110.349 24.36 109.269 24.24 108.489 24C107.709 23.78 107.179 23.61 106.899 23.49L107.409 21.09C107.729 21.21 108.239 21.39 108.939 21.63C109.639 21.87 110.569 21.99 111.729 21.99ZM141.264 21.93C144.304 21.93 145.824 20.89 145.824 18.81C145.824 18.17 145.684 17.63 145.404 17.19C145.144 16.73 144.784 16.34 144.324 16.02C143.864 15.68 143.334 15.39 142.734 15.15C142.154 14.91 141.534 14.67 140.874 14.43C140.114 14.17 139.394 13.88 138.714 13.56C138.034 13.22 137.444 12.83 136.944 12.39C136.444 11.93 136.044 11.39 135.744 10.77C135.464 10.15 135.324 9.4 135.324 8.52C135.324 6.7 135.944 5.28 137.184 4.26C138.424 3.24 140.134 2.73 142.314 2.73C143.574 2.73 144.714 2.87 145.734 3.15C146.774 3.41 147.534 3.7 148.014 4.02L147.084 6.39C146.664 6.13 146.034 5.88 145.194 5.64C144.374 5.38 143.414 5.25 142.314 5.25C141.754 5.25 141.234 5.31 140.754 5.43C140.274 5.55 139.854 5.73 139.494 5.97C139.134 6.21 138.844 6.52 138.624 6.9C138.424 7.26 138.324 7.69 138.324 8.19C138.324 8.75 138.434 9.22 138.654 9.6C138.874 9.98 139.184 10.32 139.584 10.62C139.984 10.9 140.444 11.16 140.964 11.4C141.504 11.64 142.094 11.88 142.734 12.12C143.634 12.48 144.454 12.84 145.194 13.2C145.954 13.56 146.604 13.99 147.144 14.49C147.704 14.99 148.134 15.59 148.434 16.29C148.734 16.97 148.884 17.8 148.884 18.78C148.884 20.6 148.214 22 146.874 22.98C145.554 23.96 143.684 24.45 141.264 24.45C140.444 24.45 139.684 24.39 138.984 24.27C138.304 24.17 137.694 24.05 137.154 23.91C136.614 23.75 136.144 23.59 135.744 23.43C135.364 23.25 135.064 23.1 134.844 22.98L135.714 20.58C136.174 20.84 136.874 21.13 137.814 21.45C138.754 21.77 139.904 21.93 141.264 21.93ZM163.05 16.23C163.05 14.41 162.6 13.01 161.7 12.03C160.8 11.05 159.6 10.56 158.1 10.56C157.26 10.56 156.6 10.59 156.12 10.65C155.66 10.71 155.29 10.78 155.01 10.86V20.7C155.35 20.98 155.84 21.25 156.48 21.51C157.12 21.77 157.82 21.9 158.58 21.9C159.38 21.9 160.06 21.76 160.62 21.48C161.2 21.18 161.67 20.78 162.03 20.28C162.39 19.76 162.65 19.16 162.81 18.48C162.97 17.78 163.05 17.03 163.05 16.23ZM165.96 16.23C165.96 17.41 165.8 18.5 165.48 19.5C165.18 20.5 164.73 21.36 164.13 22.08C163.53 22.8 162.79 23.36 161.91 23.76C161.05 24.16 160.06 24.36 158.94 24.36C158.04 24.36 157.24 24.24 156.54 24C155.86 23.76 155.35 23.53 155.01 23.31V29.55H152.22V8.88C152.88 8.72 153.7 8.55 154.68 8.37C155.68 8.17 156.83 8.07 158.13 8.07C159.33 8.07 160.41 8.26 161.37 8.64C162.33 9.02 163.15 9.56 163.83 10.26C164.51 10.96 165.03 11.82 165.39 12.84C165.77 13.84 165.96 14.97 165.96 16.23ZM183.656 16.2C183.656 17.44 183.476 18.56 183.116 19.56C182.756 20.56 182.246 21.42 181.586 22.14C180.946 22.86 180.176 23.42 179.276 23.82C178.376 24.2 177.396 24.39 176.336 24.39C175.276 24.39 174.296 24.2 173.396 23.82C172.496 23.42 171.716 22.86 171.056 22.14C170.416 21.42 169.916 20.56 169.556 19.56C169.196 18.56 169.016 17.44 169.016 16.2C169.016 14.98 169.196 13.87 169.556 12.87C169.916 11.85 170.416 10.98 171.056 10.26C171.716 9.54 172.496 8.99 173.396 8.61C174.296 8.21 175.276 8.01 176.336 8.01C177.396 8.01 178.376 8.21 179.276 8.61C180.176 8.99 180.946 9.54 181.586 10.26C182.246 10.98 182.756 11.85 183.116 12.87C183.476 13.87 183.656 14.98 183.656 16.2ZM180.746 16.2C180.746 14.44 180.346 13.05 179.546 12.03C178.766 10.99 177.696 10.47 176.336 10.47C174.976 10.47 173.896 10.99 173.096 12.03C172.316 13.05 171.926 14.44 171.926 16.2C171.926 17.96 172.316 19.36 173.096 20.4C173.896 21.42 174.976 21.93 176.336 21.93C177.696 21.93 178.766 21.42 179.546 20.4C180.346 19.36 180.746 17.96 180.746 16.2ZM192.262 24.3C190.542 24.26 189.322 23.89 188.602 23.19C187.882 22.49 187.522 21.4 187.522 19.92V1.2L190.312 0.719999V19.47C190.312 19.93 190.352 20.31 190.432 20.61C190.512 20.91 190.642 21.15 190.822 21.33C191.002 21.51 191.242 21.65 191.542 21.75C191.842 21.83 192.212 21.9 192.652 21.96L192.262 24.3ZM201.065 21.99C201.725 21.99 202.305 21.98 202.805 21.96C203.325 21.92 203.755 21.86 204.095 21.78V17.13C203.895 17.03 203.565 16.95 203.105 16.89C202.665 16.81 202.125 16.77 201.485 16.77C201.065 16.77 200.615 16.8 200.135 16.86C199.675 16.92 199.245 17.05 198.845 17.25C198.465 17.43 198.145 17.69 197.885 18.03C197.625 18.35 197.495 18.78 197.495 19.32C197.495 20.32 197.815 21.02 198.455 21.42C199.095 21.8 199.965 21.99 201.065 21.99ZM200.825 8.01C201.945 8.01 202.885 8.16 203.645 8.46C204.425 8.74 205.045 9.15 205.505 9.69C205.985 10.21 206.325 10.84 206.525 11.58C206.725 12.3 206.825 13.1 206.825 13.98V23.73C206.585 23.77 206.245 23.83 205.805 23.91C205.385 23.97 204.905 24.03 204.365 24.09C203.825 24.15 203.235 24.2 202.595 24.24C201.975 24.3 201.355 24.33 200.735 24.33C199.855 24.33 199.045 24.24 198.305 24.06C197.565 23.88 196.925 23.6 196.385 23.22C195.845 22.82 195.425 22.3 195.125 21.66C194.825 21.02 194.675 20.25 194.675 19.35C194.675 18.49 194.845 17.75 195.185 17.13C195.545 16.51 196.025 16.01 196.625 15.63C197.225 15.25 197.925 14.97 198.725 14.79C199.525 14.61 200.365 14.52 201.245 14.52C201.525 14.52 201.815 14.54 202.115 14.58C202.415 14.6 202.695 14.64 202.955 14.7C203.235 14.74 203.475 14.78 203.675 14.82C203.875 14.86 204.015 14.89 204.095 14.91V14.13C204.095 13.67 204.045 13.22 203.945 12.78C203.845 12.32 203.665 11.92 203.405 11.58C203.145 11.22 202.785 10.94 202.325 10.74C201.885 10.52 201.305 10.41 200.585 10.41C199.665 10.41 198.855 10.48 198.155 10.62C197.475 10.74 196.965 10.87 196.625 11.01L196.295 8.7C196.655 8.54 197.255 8.39 198.095 8.25C198.935 8.09 199.845 8.01 200.825 8.01ZM221.539 11.7C221.199 11.42 220.709 11.15 220.069 10.89C219.429 10.63 218.729 10.5 217.969 10.5C217.169 10.5 216.479 10.65 215.899 10.95C215.339 11.23 214.879 11.63 214.519 12.15C214.159 12.65 213.899 13.25 213.739 13.95C213.579 14.65 213.499 15.4 213.499 16.2C213.499 18.02 213.949 19.43 214.849 20.43C215.749 21.41 216.949 21.9 218.449 21.9C219.209 21.9 219.839 21.87 220.339 21.81C220.859 21.73 221.259 21.65 221.539 21.57V11.7ZM221.539 1.2L224.329 0.719999V23.55C223.689 23.73 222.869 23.91 221.869 24.09C220.869 24.27 219.719 24.36 218.419 24.36C217.219 24.36 216.139 24.17 215.179 23.79C214.219 23.41 213.399 22.87 212.719 22.17C212.039 21.47 211.509 20.62 211.129 19.62C210.769 18.6 210.589 17.46 210.589 16.2C210.589 15 210.739 13.9 211.039 12.9C211.359 11.9 211.819 11.04 212.419 10.32C213.019 9.6 213.749 9.04 214.609 8.64C215.489 8.24 216.489 8.04 217.609 8.04C218.509 8.04 219.299 8.16 219.979 8.4C220.679 8.64 221.199 8.87 221.539 9.09V1.2ZM242.895 16.2C242.895 17.44 242.715 18.56 242.355 19.56C241.995 20.56 241.485 21.42 240.825 22.14C240.185 22.86 239.415 23.42 238.515 23.82C237.615 24.2 236.635 24.39 235.575 24.39C234.515 24.39 233.535 24.2 232.635 23.82C231.735 23.42 230.955 22.86 230.295 22.14C229.655 21.42 229.155 20.56 228.795 19.56C228.435 18.56 228.255 17.44 228.255 16.2C228.255 14.98 228.435 13.87 228.795 12.87C229.155 11.85 229.655 10.98 230.295 10.26C230.955 9.54 231.735 8.99 232.635 8.61C233.535 8.21 234.515 8.01 235.575 8.01C236.635 8.01 237.615 8.21 238.515 8.61C239.415 8.99 240.185 9.54 240.825 10.26C241.485 10.98 241.995 11.85 242.355 12.87C242.715 13.87 242.895 14.98 242.895 16.2ZM239.985 16.2C239.985 14.44 239.585 13.05 238.785 12.03C238.005 10.99 236.935 10.47 235.575 10.47C234.215 10.47 233.135 10.99 232.335 12.03C231.555 13.05 231.165 14.44 231.165 16.2C231.165 17.96 231.555 19.36 232.335 20.4C233.135 21.42 234.215 21.93 235.575 21.93C236.935 21.93 238.005 21.42 238.785 20.4C239.585 19.36 239.985 17.96 239.985 16.2ZM252.58 8.07C252.82 8.07 253.09 8.09 253.39 8.13C253.71 8.15 254.02 8.19 254.32 8.25C254.62 8.29 254.89 8.34 255.13 8.4C255.39 8.44 255.58 8.48 255.7 8.52L255.22 10.95C255 10.87 254.63 10.78 254.11 10.68C253.61 10.56 252.96 10.5 252.16 10.5C251.64 10.5 251.12 10.56 250.6 10.68C250.1 10.78 249.77 10.85 249.61 10.89V24H246.82V9.06C247.48 8.82 248.3 8.6 249.28 8.4C250.26 8.18 251.36 8.07 252.58 8.07ZM257.522 16.23C257.522 14.85 257.722 13.65 258.122 12.63C258.522 11.59 259.052 10.73 259.712 10.05C260.372 9.37 261.132 8.86 261.992 8.52C262.852 8.18 263.732 8.01 264.632 8.01C266.732 8.01 268.342 8.67 269.462 9.99C270.582 11.29 271.142 13.28 271.142 15.96C271.142 16.08 271.142 16.24 271.142 16.44C271.142 16.62 271.132 16.79 271.112 16.95H260.432C260.552 18.57 261.022 19.8 261.842 20.64C262.662 21.48 263.942 21.9 265.682 21.9C266.662 21.9 267.482 21.82 268.142 21.66C268.822 21.48 269.332 21.31 269.672 21.15L270.062 23.49C269.722 23.67 269.122 23.86 268.262 24.06C267.422 24.26 266.462 24.36 265.382 24.36C264.022 24.36 262.842 24.16 261.842 23.76C260.862 23.34 260.052 22.77 259.412 22.05C258.772 21.33 258.292 20.48 257.972 19.5C257.672 18.5 257.522 17.41 257.522 16.23ZM268.232 14.7C268.252 13.44 267.932 12.41 267.272 11.61C266.632 10.79 265.742 10.38 264.602 10.38C263.962 10.38 263.392 10.51 262.892 10.77C262.412 11.01 262.002 11.33 261.662 11.73C261.322 12.13 261.052 12.59 260.852 13.11C260.672 13.63 260.552 14.16 260.492 14.7H268.232Z" fill="#DFDFDF"/>
</svg>
