<svg width="23" height="23" viewBox="0 0 23 23" fill="none" xmlns="http://www.w3.org/2000/svg">
<path d="M15.7167 22.9995L7.31528 20.0287L1.59722 22.2967C1.23519 22.4884 0.878472 22.4778 0.527083 22.2648C0.175694 22.0518 0 21.7324 0 21.3065V3.48146C0 3.2046 0.0798611 2.9597 0.239583 2.74673C0.399306 2.53377 0.606944 2.37405 0.8625 2.26757L7.31528 -0.000488281L15.7167 2.9384L21.4028 0.670345C21.7648 0.499975 22.1215 0.515947 22.4729 0.718262C22.8243 0.920577 23 1.2347 23 1.66062V19.7092C23 19.9435 22.9201 20.1458 22.7604 20.3162C22.6007 20.4865 22.4037 20.6143 22.1694 20.6995L15.7167 22.9995ZM14.6306 20.6037V4.47173L8.36944 2.3634V18.4953L14.6306 20.6037ZM16.5472 20.6037L21.0833 19.1023V2.74673L16.5472 4.47173V20.6037ZM1.91667 20.2203L6.45278 18.4953V2.3634L1.91667 3.86479V20.2203ZM16.5472 4.47173V20.6037V4.47173ZM6.45278 2.3634V18.4953V2.3634Z" fill="#F5F5F5"/>
</svg>
