<svg width="23" height="23" viewBox="0 0 23 23" fill="none" xmlns="http://www.w3.org/2000/svg">
<path d="M21.5625 23C18.9644 23 16.3822 22.3611 13.816 21.0833C11.2498 19.8056 8.94444 18.1444 6.9 16.1C4.85556 14.0556 3.19444 11.7502 1.91667 9.18403C0.638889 6.61782 0 4.03565 0 1.4375C0 1.03287 0.138426 0.69213 0.415278 0.415278C0.69213 0.138426 1.03287 0 1.4375 0H5.90972C6.20787 0 6.46875 0.101157 6.69236 0.303472C6.91597 0.505787 7.05972 0.777315 7.12361 1.11806L7.98611 5.14306C8.0287 5.4412 8.02338 5.71273 7.97014 5.95764C7.9169 6.20255 7.80509 6.41018 7.63472 6.58055L4.44028 9.80694C5.63287 11.7875 6.96921 13.5125 8.44931 14.9819C9.9294 16.4514 11.6065 17.6972 13.4806 18.7194L16.5153 15.5889C16.7282 15.3546 16.9731 15.1896 17.25 15.0938C17.5269 14.9979 17.8037 14.9819 18.0806 15.0458L21.8819 15.8764C22.2014 15.9403 22.4676 16.1 22.6806 16.3556C22.8935 16.6111 23 16.9093 23 17.25V21.5625C23 21.9671 22.8616 22.3079 22.5847 22.5847C22.3079 22.8616 21.9671 23 21.5625 23ZM3.48194 8.05L6.06944 5.43056L5.33472 1.91667H1.91667C1.91667 2.74722 2.04444 3.65764 2.3 4.64792C2.55556 5.63819 2.94954 6.77222 3.48194 8.05ZM21.0833 21.0833V17.6653L17.7931 16.9944L15.2694 19.6458C16.1426 20.0505 17.0903 20.3806 18.1125 20.6361C19.1347 20.8917 20.125 21.0407 21.0833 21.0833Z" fill="#F5F5F5"/>
</svg>
