<svg width="275" height="125" viewBox="0 0 275 125" fill="none" xmlns="http://www.w3.org/2000/svg">
<path d="M0.12 58.12C2.168 58.12 3.91733 57.7787 5.368 57.096C6.81867 56.328 8.01333 55.3893 8.952 54.28C9.976 53.0853 10.7013 51.7627 11.128 50.312C11.64 48.776 11.896 47.24 11.896 45.704V22.664C11.896 19.1653 12.28 16.0507 13.048 13.32C13.816 10.5893 15.1387 8.328 17.016 6.536C18.8933 4.65866 21.368 3.25066 24.44 2.312C27.5973 1.28799 31.48 0.775993 36.088 0.775993H36.6V10.12C31.736 10.12 28.2373 11.016 26.104 12.808C24.056 14.5147 23.032 17.8427 23.032 22.792V42.504C23.032 48.136 22.264 52.488 20.728 55.56C19.2773 58.632 17.1867 61.0213 14.456 62.728C17.1867 64.4347 19.2773 66.824 20.728 69.896C22.264 72.968 23.032 77.32 23.032 82.952V102.664C23.032 107.613 24.056 110.941 26.104 112.648C28.2373 114.44 31.736 115.336 36.6 115.336V124.68H36.088C31.48 124.68 27.5973 124.211 24.44 123.272C21.368 122.333 18.8933 120.925 17.016 119.048C15.1387 117.171 13.816 114.867 13.048 112.136C12.28 109.405 11.896 106.291 11.896 102.792V79.752C11.896 78.216 11.64 76.7227 11.128 75.272C10.7013 73.736 9.976 72.4133 8.952 71.304C8.01333 70.1093 6.81867 69.1707 5.368 68.488C3.91733 67.72 2.168 67.336 0.12 67.336V58.12ZM105.238 114.568H169.238V124.68H105.238V114.568ZM274.379 67.336C272.331 67.336 270.582 67.72 269.131 68.488C267.68 69.1707 266.443 70.1093 265.419 71.304C264.48 72.4133 263.755 73.736 263.243 75.272C262.816 76.7227 262.603 78.216 262.603 79.752V102.792C262.603 106.291 262.219 109.405 261.451 112.136C260.683 114.867 259.36 117.171 257.483 119.048C255.606 120.925 253.088 122.333 249.931 123.272C246.859 124.211 243.019 124.68 238.411 124.68H237.899V115.336C242.763 115.336 246.219 114.44 248.267 112.648C250.4 110.941 251.467 107.613 251.467 102.664V82.952C251.467 77.32 252.192 72.968 253.643 69.896C255.179 66.824 257.312 64.4347 260.043 62.728C257.312 61.0213 255.179 58.632 253.643 55.56C252.192 52.488 251.467 48.136 251.467 42.504V22.792C251.467 17.8427 250.4 14.5147 248.267 12.808C246.219 11.016 242.763 10.12 237.899 10.12V0.775993H238.411C243.019 0.775993 246.859 1.28799 249.931 2.312C253.088 3.25066 255.606 4.65866 257.483 6.536C259.36 8.328 260.683 10.5893 261.451 13.32C262.219 16.0507 262.603 19.1653 262.603 22.664V45.704C262.603 47.24 262.816 48.776 263.243 50.312C263.755 51.7627 264.48 53.0853 265.419 54.28C266.443 55.3893 267.68 56.328 269.131 57.096C270.582 57.7787 272.331 58.12 274.379 58.12V67.336Z" fill="#5522FF"/>
<path d="M69.241 92.168C82.2117 92.168 88.697 87.7307 88.697 78.856C88.697 76.1253 88.0997 73.8213 86.905 71.944C85.7957 69.9813 84.2597 68.3173 82.297 66.952C80.3343 65.5013 78.073 64.264 75.513 63.24C73.0383 62.216 70.393 61.192 67.577 60.168C64.3343 59.0587 61.2623 57.8213 58.361 56.456C55.4597 55.0053 52.9423 53.3413 50.809 51.464C48.6757 49.5013 46.969 47.1973 45.689 44.552C44.4943 41.9067 43.897 38.7067 43.897 34.952C43.897 27.1867 46.5423 21.128 51.833 16.776C57.1237 12.424 64.4197 10.248 73.721 10.248C79.097 10.248 83.961 10.8453 88.313 12.04C92.7503 13.1493 95.993 14.3867 98.041 15.752L94.073 25.864C92.281 24.7547 89.593 23.688 86.009 22.664C82.5103 21.5547 78.4143 21 73.721 21C71.3317 21 69.113 21.256 67.065 21.768C65.017 22.28 63.225 23.048 61.689 24.072C60.153 25.096 58.9157 26.4187 57.977 28.04C57.1237 29.576 56.697 31.4107 56.697 33.544C56.697 35.9333 57.1663 37.9387 58.105 39.56C59.0437 41.1813 60.3663 42.632 62.073 43.912C63.7797 45.1067 65.7423 46.216 67.961 47.24C70.265 48.264 72.7823 49.288 75.513 50.312C79.353 51.848 82.8517 53.384 86.009 54.92C89.2517 56.456 92.025 58.2907 94.329 60.424C96.7183 62.5573 98.553 65.1173 99.833 68.104C101.113 71.0053 101.753 74.5467 101.753 78.728C101.753 86.4933 98.8943 92.4667 93.177 96.648C87.545 100.829 79.5663 102.92 69.241 102.92C65.7423 102.92 62.4997 102.664 59.513 102.152C56.6117 101.725 54.009 101.213 51.705 100.616C49.401 99.9333 47.3957 99.2507 45.689 98.568C44.0677 97.8 42.7877 97.16 41.849 96.648L45.561 86.408C47.5237 87.5173 50.5103 88.7547 54.521 90.12C58.5317 91.4853 63.4383 92.168 69.241 92.168ZM200.366 92.168C213.337 92.168 219.822 87.7307 219.822 78.856C219.822 76.1253 219.225 73.8213 218.03 71.944C216.921 69.9813 215.385 68.3173 213.422 66.952C211.459 65.5013 209.198 64.264 206.638 63.24C204.163 62.216 201.518 61.192 198.702 60.168C195.459 59.0587 192.387 57.8213 189.486 56.456C186.585 55.0053 184.067 53.3413 181.934 51.464C179.801 49.5013 178.094 47.1973 176.814 44.552C175.619 41.9067 175.022 38.7067 175.022 34.952C175.022 27.1867 177.667 21.128 182.958 16.776C188.249 12.424 195.545 10.248 204.846 10.248C210.222 10.248 215.086 10.8453 219.438 12.04C223.875 13.1493 227.118 14.3867 229.166 15.752L225.198 25.864C223.406 24.7547 220.718 23.688 217.134 22.664C213.635 21.5547 209.539 21 204.846 21C202.457 21 200.238 21.256 198.19 21.768C196.142 22.28 194.35 23.048 192.814 24.072C191.278 25.096 190.041 26.4187 189.102 28.04C188.249 29.576 187.822 31.4107 187.822 33.544C187.822 35.9333 188.291 37.9387 189.23 39.56C190.169 41.1813 191.491 42.632 193.198 43.912C194.905 45.1067 196.867 46.216 199.086 47.24C201.39 48.264 203.907 49.288 206.638 50.312C210.478 51.848 213.977 53.384 217.134 54.92C220.377 56.456 223.15 58.2907 225.454 60.424C227.843 62.5573 229.678 65.1173 230.958 68.104C232.238 71.0053 232.878 74.5467 232.878 78.728C232.878 86.4933 230.019 92.4667 224.302 96.648C218.67 100.829 210.691 102.92 200.366 102.92C196.867 102.92 193.625 102.664 190.638 102.152C187.737 101.725 185.134 101.213 182.83 100.616C180.526 99.9333 178.521 99.2507 176.814 98.568C175.193 97.8 173.913 97.16 172.974 96.648L176.686 86.408C178.649 87.5173 181.635 88.7547 185.646 90.12C189.657 91.4853 194.563 92.168 200.366 92.168Z" fill="#DFDFDF"/>
</svg>
