<svg width="227" height="24" viewBox="0 0 227 24" fill="none" xmlns="http://www.w3.org/2000/svg">
<path d="M0.96 10.96C1.344 10.96 1.672 10.896 1.944 10.768C2.216 10.624 2.44 10.448 2.616 10.24C2.808 10.016 2.944 9.768 3.024 9.496C3.12 9.208 3.168 8.92 3.168 8.632V4.312C3.168 3.656 3.24 3.072 3.384 2.56C3.528 2.048 3.776 1.624 4.128 1.288C4.48 0.935999 4.944 0.671999 5.52 0.495999C6.112 0.303999 6.84 0.207999 7.704 0.207999H7.8V1.96C6.888 1.96 6.232 2.128 5.832 2.464C5.448 2.784 5.256 3.408 5.256 4.336V8.032C5.256 9.088 5.112 9.904 4.824 10.48C4.552 11.056 4.16 11.504 3.648 11.824C4.16 12.144 4.552 12.592 4.824 13.168C5.112 13.744 5.256 14.56 5.256 15.616V19.312C5.256 20.24 5.448 20.864 5.832 21.184C6.232 21.52 6.888 21.688 7.8 21.688V23.44H7.704C6.84 23.44 6.112 23.352 5.52 23.176C4.944 23 4.48 22.736 4.128 22.384C3.776 22.032 3.528 21.6 3.384 21.088C3.24 20.576 3.168 19.992 3.168 19.336V15.016C3.168 14.728 3.12 14.448 3.024 14.176C2.944 13.888 2.808 13.64 2.616 13.432C2.44 13.208 2.216 13.032 1.944 12.904C1.672 12.76 1.344 12.688 0.96 12.688V10.96ZM95.9743 21.544H107.974V23.44H95.9743V21.544ZM226.032 12.688C225.648 12.688 225.32 12.76 225.048 12.904C224.776 13.032 224.544 13.208 224.352 13.432C224.176 13.64 224.04 13.888 223.944 14.176C223.864 14.448 223.824 14.728 223.824 15.016V19.336C223.824 19.992 223.752 20.576 223.608 21.088C223.464 21.6 223.216 22.032 222.864 22.384C222.512 22.736 222.04 23 221.448 23.176C220.872 23.352 220.152 23.44 219.288 23.44H219.192V21.688C220.104 21.688 220.752 21.52 221.136 21.184C221.536 20.864 221.736 20.24 221.736 19.312V15.616C221.736 14.56 221.872 13.744 222.144 13.168C222.432 12.592 222.832 12.144 223.344 11.824C222.832 11.504 222.432 11.056 222.144 10.48C221.872 9.904 221.736 9.088 221.736 8.032V4.336C221.736 3.408 221.536 2.784 221.136 2.464C220.752 2.128 220.104 1.96 219.192 1.96V0.207999H219.288C220.152 0.207999 220.872 0.303999 221.448 0.495999C222.04 0.671999 222.512 0.935999 222.864 1.288C223.216 1.624 223.464 2.048 223.608 2.56C223.752 3.072 223.824 3.656 223.824 4.312V8.632C223.824 8.92 223.864 9.208 223.944 9.496C224.04 9.768 224.176 10.016 224.352 10.24C224.544 10.448 224.776 10.624 225.048 10.768C225.32 10.896 225.648 10.96 226.032 10.96V12.688Z" fill="#5522FF"/>
<path d="M13.9202 17.344C16.3522 17.344 17.5682 16.512 17.5682 14.848C17.5682 14.336 17.4562 13.904 17.2322 13.552C17.0242 13.184 16.7362 12.872 16.3682 12.616C16.0002 12.344 15.5762 12.112 15.0962 11.92C14.6322 11.728 14.1362 11.536 13.6082 11.344C13.0002 11.136 12.4242 10.904 11.8802 10.648C11.3362 10.376 10.8642 10.064 10.4642 9.712C10.0642 9.344 9.74419 8.912 9.50419 8.416C9.28019 7.92 9.16819 7.32 9.16819 6.616C9.16819 5.16 9.66419 4.024 10.6562 3.208C11.6482 2.392 13.0162 1.984 14.7602 1.984C15.7682 1.984 16.6802 2.096 17.4962 2.32C18.3282 2.528 18.9362 2.76 19.3202 3.016L18.5762 4.912C18.2402 4.704 17.7362 4.504 17.0642 4.312C16.4082 4.104 15.6402 4 14.7602 4C14.3122 4 13.8962 4.048 13.5122 4.144C13.1282 4.24 12.7922 4.384 12.5042 4.576C12.2162 4.768 11.9842 5.016 11.8082 5.32C11.6482 5.608 11.5682 5.952 11.5682 6.352C11.5682 6.8 11.6562 7.176 11.8322 7.48C12.0082 7.784 12.2562 8.056 12.5762 8.296C12.8962 8.52 13.2642 8.728 13.6802 8.92C14.1122 9.112 14.5842 9.304 15.0962 9.496C15.8162 9.784 16.4722 10.072 17.0642 10.36C17.6722 10.648 18.1922 10.992 18.6242 11.392C19.0722 11.792 19.4162 12.272 19.6562 12.832C19.8962 13.376 20.0162 14.04 20.0162 14.824C20.0162 16.28 19.4802 17.4 18.4082 18.184C17.3522 18.968 15.8562 19.36 13.9202 19.36C13.2642 19.36 12.6562 19.312 12.0962 19.216C11.5522 19.136 11.0642 19.04 10.6322 18.928C10.2002 18.8 9.82419 18.672 9.50419 18.544C9.20019 18.4 8.96019 18.28 8.78419 18.184L9.48019 16.264C9.84819 16.472 10.4082 16.704 11.1602 16.96C11.9122 17.216 12.8322 17.344 13.9202 17.344ZM26.9096 17.392C27.4376 17.392 27.9016 17.384 28.3016 17.368C28.7176 17.336 29.0616 17.288 29.3336 17.224V13.504C29.1736 13.424 28.9096 13.36 28.5416 13.312C28.1896 13.248 27.7576 13.216 27.2456 13.216C26.9096 13.216 26.5496 13.24 26.1656 13.288C25.7976 13.336 25.4536 13.44 25.1336 13.6C24.8296 13.744 24.5736 13.952 24.3656 14.224C24.1576 14.48 24.0536 14.824 24.0536 15.256C24.0536 16.056 24.3096 16.616 24.8216 16.936C25.3336 17.24 26.0296 17.392 26.9096 17.392ZM26.7176 6.208C27.6136 6.208 28.3656 6.328 28.9736 6.568C29.5976 6.792 30.0936 7.12 30.4616 7.552C30.8456 7.968 31.1176 8.472 31.2776 9.064C31.4376 9.64 31.5176 10.28 31.5176 10.984V18.784C31.3256 18.816 31.0536 18.864 30.7016 18.928C30.3656 18.976 29.9816 19.024 29.5496 19.072C29.1176 19.12 28.6456 19.16 28.1336 19.192C27.6376 19.24 27.1416 19.264 26.6456 19.264C25.9416 19.264 25.2936 19.192 24.7016 19.048C24.1096 18.904 23.5976 18.68 23.1656 18.376C22.7336 18.056 22.3976 17.64 22.1576 17.128C21.9176 16.616 21.7976 16 21.7976 15.28C21.7976 14.592 21.9336 14 22.2056 13.504C22.4936 13.008 22.8776 12.608 23.3576 12.304C23.8376 12 24.3976 11.776 25.0376 11.632C25.6776 11.488 26.3496 11.416 27.0536 11.416C27.2776 11.416 27.5096 11.432 27.7496 11.464C27.9896 11.48 28.2136 11.512 28.4216 11.56C28.6456 11.592 28.8376 11.624 28.9976 11.656C29.1576 11.688 29.2696 11.712 29.3336 11.728V11.104C29.3336 10.736 29.2936 10.376 29.2136 10.024C29.1336 9.656 28.9896 9.336 28.7816 9.064C28.5736 8.776 28.2856 8.552 27.9176 8.392C27.5656 8.216 27.1016 8.128 26.5256 8.128C25.7896 8.128 25.1416 8.184 24.5816 8.296C24.0376 8.392 23.6296 8.496 23.3576 8.608L23.0936 6.76C23.3816 6.632 23.8616 6.512 24.5336 6.4C25.2056 6.272 25.9336 6.208 26.7176 6.208ZM35.2247 6.88C35.7367 6.752 36.4167 6.616 37.2647 6.472C38.1127 6.328 39.0887 6.256 40.1927 6.256C41.1847 6.256 42.0087 6.4 42.6647 6.688C43.3207 6.96 43.8407 7.352 44.2247 7.864C44.6247 8.36 44.9047 8.96 45.0647 9.664C45.2247 10.368 45.3047 11.144 45.3047 11.992V19H43.0727V12.472C43.0727 11.704 43.0167 11.048 42.9047 10.504C42.8087 9.96 42.6407 9.52 42.4007 9.184C42.1607 8.848 41.8407 8.608 41.4407 8.464C41.0407 8.304 40.5447 8.224 39.9527 8.224C39.7127 8.224 39.4647 8.232 39.2087 8.248C38.9527 8.264 38.7047 8.288 38.4647 8.32C38.2407 8.336 38.0327 8.36 37.8407 8.392C37.6647 8.424 37.5367 8.448 37.4567 8.464V19H35.2247V6.88ZM54.4299 19.288C53.4219 19.288 52.5339 19.128 51.7659 18.808C51.0139 18.488 50.3739 18.04 49.8459 17.464C49.3339 16.888 48.9499 16.208 48.6939 15.424C48.4379 14.624 48.3099 13.744 48.3099 12.784C48.3099 11.824 48.4459 10.944 48.7179 10.144C49.0059 9.344 49.4059 8.656 49.9179 8.08C50.4299 7.488 51.0539 7.032 51.7899 6.712C52.5419 6.376 53.3739 6.208 54.2859 6.208C54.8459 6.208 55.4059 6.256 55.9659 6.352C56.5259 6.448 57.0619 6.6 57.5739 6.808L57.0699 8.704C56.7339 8.544 56.3419 8.416 55.8939 8.32C55.4619 8.224 54.9979 8.176 54.5019 8.176C53.2539 8.176 52.2939 8.568 51.6219 9.352C50.9659 10.136 50.6379 11.28 50.6379 12.784C50.6379 13.456 50.7099 14.072 50.8539 14.632C51.0139 15.192 51.2539 15.672 51.5739 16.072C51.9099 16.472 52.3339 16.784 52.8459 17.008C53.3579 17.216 53.9819 17.32 54.7179 17.32C55.3099 17.32 55.8459 17.264 56.3259 17.152C56.8059 17.04 57.1819 16.92 57.4539 16.792L57.7659 18.664C57.6379 18.744 57.4539 18.824 57.2139 18.904C56.9739 18.968 56.7019 19.024 56.3979 19.072C56.0939 19.136 55.7659 19.184 55.4139 19.216C55.0779 19.264 54.7499 19.288 54.4299 19.288ZM60.1622 19V0.759999L62.3942 0.375999V6.76C62.8102 6.6 63.2502 6.48 63.7142 6.4C64.1942 6.304 64.6662 6.256 65.1302 6.256C66.1222 6.256 66.9462 6.4 67.6022 6.688C68.2582 6.96 68.7782 7.352 69.1622 7.864C69.5622 8.36 69.8422 8.96 70.0022 9.664C70.1622 10.368 70.2422 11.144 70.2422 11.992V19H68.0102V12.472C68.0102 11.704 67.9542 11.048 67.8422 10.504C67.7462 9.96 67.5782 9.52 67.3382 9.184C67.0982 8.848 66.7782 8.608 66.3782 8.464C65.9782 8.304 65.4822 8.224 64.8902 8.224C64.6502 8.224 64.4022 8.24 64.1462 8.272C63.8902 8.304 63.6422 8.344 63.4022 8.392C63.1782 8.424 62.9702 8.464 62.7782 8.512C62.6022 8.56 62.4742 8.6 62.3942 8.632V19H60.1622ZM73.1771 12.784C73.1771 11.68 73.3371 10.72 73.6571 9.904C73.9771 9.072 74.4011 8.384 74.9291 7.84C75.4571 7.296 76.0651 6.888 76.7531 6.616C77.4411 6.344 78.1451 6.208 78.8651 6.208C80.5451 6.208 81.8331 6.736 82.7291 7.792C83.6251 8.832 84.0731 10.424 84.0731 12.568C84.0731 12.664 84.0731 12.792 84.0731 12.952C84.0731 13.096 84.0651 13.232 84.0491 13.36H75.5051C75.6011 14.656 75.9771 15.64 76.6331 16.312C77.2891 16.984 78.3131 17.32 79.7051 17.32C80.4891 17.32 81.1451 17.256 81.6731 17.128C82.2171 16.984 82.6251 16.848 82.8971 16.72L83.2091 18.592C82.9371 18.736 82.4571 18.888 81.7691 19.048C81.0971 19.208 80.3291 19.288 79.4651 19.288C78.3771 19.288 77.4331 19.128 76.6331 18.808C75.8491 18.472 75.2011 18.016 74.6891 17.44C74.1771 16.864 73.7931 16.184 73.5371 15.4C73.2971 14.6 73.1771 13.728 73.1771 12.784ZM81.7451 11.56C81.7611 10.552 81.5051 9.728 80.9771 9.088C80.4651 8.432 79.7531 8.104 78.8411 8.104C78.3291 8.104 77.8731 8.208 77.4731 8.416C77.0891 8.608 76.7611 8.864 76.4891 9.184C76.2171 9.504 76.0011 9.872 75.8411 10.288C75.6971 10.704 75.6011 11.128 75.5531 11.56H81.7451ZM90.1834 17.392C91.0954 17.392 91.7674 17.272 92.1994 17.032C92.6474 16.792 92.8714 16.408 92.8714 15.88C92.8714 15.336 92.6554 14.904 92.2234 14.584C91.7914 14.264 91.0794 13.904 90.0874 13.504C89.6074 13.312 89.1434 13.12 88.6954 12.928C88.2634 12.72 87.8874 12.48 87.5674 12.208C87.2474 11.936 86.9914 11.608 86.7994 11.224C86.6074 10.84 86.5114 10.368 86.5114 9.808C86.5114 8.704 86.9194 7.832 87.7354 7.192C88.5514 6.536 89.6634 6.208 91.0714 6.208C91.4234 6.208 91.7754 6.232 92.1274 6.28C92.4794 6.312 92.8074 6.36 93.1114 6.424C93.4154 6.472 93.6794 6.528 93.9034 6.592C94.1434 6.656 94.3274 6.712 94.4554 6.76L94.0474 8.68C93.8074 8.552 93.4314 8.424 92.9194 8.296C92.4074 8.152 91.7914 8.08 91.0714 8.08C90.4474 8.08 89.9034 8.208 89.4394 8.464C88.9754 8.704 88.7434 9.088 88.7434 9.616C88.7434 9.888 88.7914 10.128 88.8874 10.336C88.9994 10.544 89.1594 10.736 89.3674 10.912C89.5914 11.072 89.8634 11.224 90.1834 11.368C90.5034 11.512 90.8874 11.664 91.3354 11.824C91.9274 12.048 92.4554 12.272 92.9194 12.496C93.3834 12.704 93.7754 12.952 94.0954 13.24C94.4314 13.528 94.6874 13.88 94.8634 14.296C95.0394 14.696 95.1274 15.192 95.1274 15.784C95.1274 16.936 94.6954 17.808 93.8314 18.4C92.9834 18.992 91.7674 19.288 90.1834 19.288C89.0794 19.288 88.2154 19.192 87.5914 19C86.9674 18.824 86.5434 18.688 86.3194 18.592L86.7274 16.672C86.9834 16.768 87.3914 16.912 87.9514 17.104C88.5114 17.296 89.2554 17.392 90.1834 17.392ZM113.811 17.344C116.243 17.344 117.459 16.512 117.459 14.848C117.459 14.336 117.347 13.904 117.123 13.552C116.915 13.184 116.627 12.872 116.259 12.616C115.891 12.344 115.467 12.112 114.987 11.92C114.523 11.728 114.027 11.536 113.499 11.344C112.891 11.136 112.315 10.904 111.771 10.648C111.227 10.376 110.755 10.064 110.355 9.712C109.955 9.344 109.635 8.912 109.395 8.416C109.171 7.92 109.059 7.32 109.059 6.616C109.059 5.16 109.555 4.024 110.547 3.208C111.539 2.392 112.907 1.984 114.651 1.984C115.659 1.984 116.571 2.096 117.387 2.32C118.219 2.528 118.827 2.76 119.211 3.016L118.467 4.912C118.131 4.704 117.627 4.504 116.955 4.312C116.299 4.104 115.531 4 114.651 4C114.203 4 113.787 4.048 113.403 4.144C113.019 4.24 112.683 4.384 112.395 4.576C112.107 4.768 111.875 5.016 111.699 5.32C111.539 5.608 111.459 5.952 111.459 6.352C111.459 6.8 111.547 7.176 111.723 7.48C111.899 7.784 112.147 8.056 112.467 8.296C112.787 8.52 113.155 8.728 113.571 8.92C114.003 9.112 114.475 9.304 114.987 9.496C115.707 9.784 116.363 10.072 116.955 10.36C117.563 10.648 118.083 10.992 118.515 11.392C118.963 11.792 119.307 12.272 119.547 12.832C119.787 13.376 119.907 14.04 119.907 14.824C119.907 16.28 119.371 17.4 118.299 18.184C117.243 18.968 115.747 19.36 113.811 19.36C113.155 19.36 112.547 19.312 111.987 19.216C111.443 19.136 110.955 19.04 110.523 18.928C110.091 18.8 109.715 18.672 109.395 18.544C109.091 18.4 108.851 18.28 108.675 18.184L109.371 16.264C109.739 16.472 110.299 16.704 111.051 16.96C111.803 17.216 112.723 17.344 113.811 17.344ZM131.24 12.784C131.24 11.328 130.88 10.208 130.16 9.424C129.44 8.64 128.48 8.248 127.28 8.248C126.608 8.248 126.08 8.272 125.696 8.32C125.328 8.368 125.032 8.424 124.808 8.488V16.36C125.08 16.584 125.472 16.8 125.984 17.008C126.496 17.216 127.056 17.32 127.664 17.32C128.304 17.32 128.848 17.208 129.296 16.984C129.76 16.744 130.136 16.424 130.424 16.024C130.712 15.608 130.92 15.128 131.048 14.584C131.176 14.024 131.24 13.424 131.24 12.784ZM133.568 12.784C133.568 13.728 133.44 14.6 133.184 15.4C132.944 16.2 132.584 16.888 132.104 17.464C131.624 18.04 131.032 18.488 130.328 18.808C129.64 19.128 128.848 19.288 127.952 19.288C127.232 19.288 126.592 19.192 126.032 19C125.488 18.808 125.08 18.624 124.808 18.448V23.44H122.576V6.904C123.104 6.776 123.76 6.64 124.544 6.496C125.344 6.336 126.264 6.256 127.304 6.256C128.264 6.256 129.128 6.408 129.896 6.712C130.664 7.016 131.32 7.448 131.864 8.008C132.408 8.568 132.824 9.256 133.112 10.072C133.416 10.872 133.568 11.776 133.568 12.784ZM147.725 12.76C147.725 13.752 147.581 14.648 147.293 15.448C147.005 16.248 146.597 16.936 146.069 17.512C145.557 18.088 144.941 18.536 144.221 18.856C143.501 19.16 142.717 19.312 141.869 19.312C141.021 19.312 140.237 19.16 139.517 18.856C138.797 18.536 138.173 18.088 137.645 17.512C137.133 16.936 136.733 16.248 136.445 15.448C136.157 14.648 136.013 13.752 136.013 12.76C136.013 11.784 136.157 10.896 136.445 10.096C136.733 9.28 137.133 8.584 137.645 8.008C138.173 7.432 138.797 6.992 139.517 6.688C140.237 6.368 141.021 6.208 141.869 6.208C142.717 6.208 143.501 6.368 144.221 6.688C144.941 6.992 145.557 7.432 146.069 8.008C146.597 8.584 147.005 9.28 147.293 10.096C147.581 10.896 147.725 11.784 147.725 12.76ZM145.397 12.76C145.397 11.352 145.077 10.24 144.437 9.424C143.813 8.592 142.957 8.176 141.869 8.176C140.781 8.176 139.917 8.592 139.277 9.424C138.653 10.24 138.341 11.352 138.341 12.76C138.341 14.168 138.653 15.288 139.277 16.12C139.917 16.936 140.781 17.344 141.869 17.344C142.957 17.344 143.813 16.936 144.437 16.12C145.077 15.288 145.397 14.168 145.397 12.76ZM154.609 19.24C153.233 19.208 152.257 18.912 151.681 18.352C151.105 17.792 150.817 16.92 150.817 15.736V0.759999L153.049 0.375999V15.376C153.049 15.744 153.081 16.048 153.145 16.288C153.209 16.528 153.313 16.72 153.457 16.864C153.601 17.008 153.793 17.12 154.033 17.2C154.273 17.264 154.569 17.32 154.921 17.368L154.609 19.24ZM161.652 17.392C162.18 17.392 162.644 17.384 163.044 17.368C163.46 17.336 163.804 17.288 164.076 17.224V13.504C163.916 13.424 163.652 13.36 163.284 13.312C162.932 13.248 162.5 13.216 161.988 13.216C161.652 13.216 161.292 13.24 160.908 13.288C160.54 13.336 160.196 13.44 159.876 13.6C159.572 13.744 159.316 13.952 159.108 14.224C158.9 14.48 158.796 14.824 158.796 15.256C158.796 16.056 159.052 16.616 159.564 16.936C160.076 17.24 160.772 17.392 161.652 17.392ZM161.46 6.208C162.356 6.208 163.108 6.328 163.716 6.568C164.34 6.792 164.836 7.12 165.204 7.552C165.588 7.968 165.86 8.472 166.02 9.064C166.18 9.64 166.26 10.28 166.26 10.984V18.784C166.068 18.816 165.796 18.864 165.444 18.928C165.108 18.976 164.724 19.024 164.292 19.072C163.86 19.12 163.388 19.16 162.876 19.192C162.38 19.24 161.884 19.264 161.388 19.264C160.684 19.264 160.036 19.192 159.444 19.048C158.852 18.904 158.34 18.68 157.908 18.376C157.476 18.056 157.14 17.64 156.9 17.128C156.66 16.616 156.54 16 156.54 15.28C156.54 14.592 156.676 14 156.948 13.504C157.236 13.008 157.62 12.608 158.1 12.304C158.58 12 159.14 11.776 159.78 11.632C160.42 11.488 161.092 11.416 161.796 11.416C162.02 11.416 162.252 11.432 162.492 11.464C162.732 11.48 162.956 11.512 163.164 11.56C163.388 11.592 163.58 11.624 163.74 11.656C163.9 11.688 164.012 11.712 164.076 11.728V11.104C164.076 10.736 164.036 10.376 163.956 10.024C163.876 9.656 163.732 9.336 163.524 9.064C163.316 8.776 163.028 8.552 162.66 8.392C162.308 8.216 161.844 8.128 161.268 8.128C160.532 8.128 159.884 8.184 159.324 8.296C158.78 8.392 158.372 8.496 158.1 8.608L157.836 6.76C158.124 6.632 158.604 6.512 159.276 6.4C159.948 6.272 160.676 6.208 161.46 6.208ZM178.031 9.16C177.759 8.936 177.367 8.72 176.855 8.512C176.343 8.304 175.783 8.2 175.175 8.2C174.535 8.2 173.983 8.32 173.519 8.56C173.071 8.784 172.703 9.104 172.415 9.52C172.127 9.92 171.919 10.4 171.791 10.96C171.663 11.52 171.599 12.12 171.599 12.76C171.599 14.216 171.959 15.344 172.679 16.144C173.399 16.928 174.359 17.32 175.559 17.32C176.167 17.32 176.671 17.296 177.071 17.248C177.487 17.184 177.807 17.12 178.031 17.056V9.16ZM178.031 0.759999L180.263 0.375999V18.64C179.751 18.784 179.095 18.928 178.295 19.072C177.495 19.216 176.575 19.288 175.535 19.288C174.575 19.288 173.711 19.136 172.943 18.832C172.175 18.528 171.519 18.096 170.975 17.536C170.431 16.976 170.007 16.296 169.703 15.496C169.415 14.68 169.271 13.768 169.271 12.76C169.271 11.8 169.391 10.92 169.631 10.12C169.887 9.32 170.255 8.632 170.735 8.056C171.215 7.48 171.799 7.032 172.487 6.712C173.191 6.392 173.991 6.232 174.887 6.232C175.607 6.232 176.239 6.328 176.783 6.52C177.343 6.712 177.759 6.896 178.031 7.072V0.759999ZM195.116 12.76C195.116 13.752 194.972 14.648 194.684 15.448C194.396 16.248 193.988 16.936 193.46 17.512C192.948 18.088 192.332 18.536 191.612 18.856C190.892 19.16 190.108 19.312 189.26 19.312C188.412 19.312 187.628 19.16 186.908 18.856C186.188 18.536 185.564 18.088 185.036 17.512C184.524 16.936 184.124 16.248 183.836 15.448C183.548 14.648 183.404 13.752 183.404 12.76C183.404 11.784 183.548 10.896 183.836 10.096C184.124 9.28 184.524 8.584 185.036 8.008C185.564 7.432 186.188 6.992 186.908 6.688C187.628 6.368 188.412 6.208 189.26 6.208C190.108 6.208 190.892 6.368 191.612 6.688C192.332 6.992 192.948 7.432 193.46 8.008C193.988 8.584 194.396 9.28 194.684 10.096C194.972 10.896 195.116 11.784 195.116 12.76ZM192.788 12.76C192.788 11.352 192.468 10.24 191.828 9.424C191.204 8.592 190.348 8.176 189.26 8.176C188.172 8.176 187.308 8.592 186.668 9.424C186.044 10.24 185.732 11.352 185.732 12.76C185.732 14.168 186.044 15.288 186.668 16.12C187.308 16.936 188.172 17.344 189.26 17.344C190.348 17.344 191.204 16.936 191.828 16.12C192.468 15.288 192.788 14.168 192.788 12.76ZM202.864 6.256C203.056 6.256 203.272 6.272 203.512 6.304C203.768 6.32 204.016 6.352 204.256 6.4C204.496 6.432 204.712 6.472 204.904 6.52C205.112 6.552 205.264 6.584 205.36 6.616L204.976 8.56C204.8 8.496 204.504 8.424 204.088 8.344C203.688 8.248 203.168 8.2 202.528 8.2C202.112 8.2 201.696 8.248 201.28 8.344C200.88 8.424 200.616 8.48 200.488 8.512V19H198.256V7.048C198.784 6.856 199.44 6.68 200.224 6.52C201.008 6.344 201.888 6.256 202.864 6.256ZM206.818 12.784C206.818 11.68 206.978 10.72 207.298 9.904C207.618 9.072 208.042 8.384 208.57 7.84C209.098 7.296 209.706 6.888 210.394 6.616C211.082 6.344 211.786 6.208 212.506 6.208C214.186 6.208 215.474 6.736 216.37 7.792C217.266 8.832 217.714 10.424 217.714 12.568C217.714 12.664 217.714 12.792 217.714 12.952C217.714 13.096 217.706 13.232 217.69 13.36H209.146C209.242 14.656 209.618 15.64 210.274 16.312C210.93 16.984 211.954 17.32 213.346 17.32C214.13 17.32 214.786 17.256 215.314 17.128C215.858 16.984 216.266 16.848 216.538 16.72L216.85 18.592C216.578 18.736 216.098 18.888 215.41 19.048C214.738 19.208 213.97 19.288 213.106 19.288C212.018 19.288 211.074 19.128 210.274 18.808C209.49 18.472 208.842 18.016 208.33 17.44C207.818 16.864 207.434 16.184 207.178 15.4C206.938 14.6 206.818 13.728 206.818 12.784ZM215.386 11.56C215.402 10.552 215.146 9.728 214.618 9.088C214.106 8.432 213.394 8.104 212.482 8.104C211.97 8.104 211.514 8.208 211.114 8.416C210.73 8.608 210.402 8.864 210.13 9.184C209.858 9.504 209.642 9.872 209.482 10.288C209.338 10.704 209.242 11.128 209.194 11.56H215.386Z" fill="#DFDFDF"/>
</svg>
